<?xml version="1.0" standalone="no"?>
<!DOCTYPE svg PUBLIC "-//W3C//DTD SVG 20010904//EN"
 "http://www.w3.org/TR/2001/REC-SVG-20010904/DTD/svg10.dtd">
<svg version="1.0" xmlns="http://www.w3.org/2000/svg"
 width="700.000000pt" height="700.000000pt" viewBox="0 0 700.000000 700.000000"
 preserveAspectRatio="xMidYMid meet">
<metadata>
Created by potrace 1.14, written by Peter Selinger 2001-2017
</metadata>
<g transform="translate(0.000000,700.000000) scale(0.100000,-0.100000)"
fill="#000000" stroke="none">
<path d="M1255 6964 c-213 -45 -419 -135 -592 -257 -113 -80 -291 -258 -370
-370 -71 -100 -158 -268 -198 -377 -15 -41 -40 -133 -56 -203 l-29 -128 0
-2127 c0 -2108 0 -2128 21 -2236 35 -184 105 -368 199 -521 155 -254 407 -480
670 -603 126 -59 198 -83 347 -117 l112 -25 2140 0 c2119 0 2141 0 2247 21
257 49 466 150 705 340 165 132 291 293 395 504 73 149 96 215 130 368 l24
110 0 2136 c0 2349 4 2203 -61 2416 -91 297 -322 623 -568 798 -186 133 -372
216 -594 266 l-139 31 -2136 -1 -2137 -1 -110 -24z m3405 -1350 c54 -25 103
-72 133 -128 22 -41 22 -47 25 -541 l3 -500 -63 -117 c-35 -65 -66 -118 -70
-118 -5 0 -8 267 -8 593 0 555 -1 594 -18 626 -10 19 -34 43 -53 53 -32 17
-96 18 -1424 18 -1356 0 -1391 -1 -1433 -20 -84 -38 -77 149 -73 -2000 4
-2123 -3 -1944 73 -1975 34 -13 205 -15 1434 -15 1541 0 1433 -5 1474 63 19
30 20 52 20 333 0 339 -7 308 82 377 25 20 49 37 52 37 3 0 6 -161 6 -358 0
-394 -4 -426 -59 -492 -16 -20 -53 -49 -82 -65 l-54 -30 -1445 0 c-1344 0
-1448 1 -1481 17 -54 25 -96 64 -127 117 l-27 46 0 1961 0 1961 37 56 c43 64
103 104 175 117 27 4 680 7 1453 6 1402 -1 1405 -1 1450 -22z m-1769 -794 c3
-41 9 -234 14 -428 l7 -352 -39 -16 c-144 -58 -236 -135 -287 -240 -50 -102
-50 -229 -1 -331 55 -111 236 -243 360 -259 24 -4 49 -12 54 -18 5 -6 15 -168
22 -360 10 -294 9 -350 -2 -357 -8 -5 -110 -9 -226 -9 -177 0 -213 2 -213 14
0 8 39 150 86 315 47 166 84 308 82 317 -2 8 -40 30 -85 48 -182 73 -316 200
-373 353 -62 165 -21 364 102 499 64 69 171 146 238 170 28 10 50 23 50 29 0
20 -34 113 -130 350 -51 127 -94 235 -97 241 -3 10 80 46 167 73 46 14 208 40
240 38 24 -2 25 -6 31 -77z m331 49 c29 -6 81 -19 116 -31 56 -18 62 -22 62
-46 0 -15 -41 -148 -90 -297 l-91 -270 43 -35 c151 -123 207 -235 196 -390 -7
-96 -41 -163 -131 -257 l-75 -78 249 -497 c137 -274 249 -500 249 -503 0 -3
-139 -5 -308 -5 l-309 0 -7 417 c-5 267 -11 420 -17 424 -6 3 -41 9 -77 12
-230 20 -398 165 -379 328 14 114 99 218 232 280 45 21 88 39 94 39 5 0 14 8
19 18 5 9 6 215 3 457 -4 242 -4 444 -2 449 5 10 146 1 223 -15z m2306 -85
c81 -43 168 -90 195 -107 78 -48 118 -139 96 -220 -6 -22 -211 -414 -456 -871
-562 -1048 -621 -1157 -641 -1180 -19 -21 -438 -357 -491 -393 -72 -49 -174
-20 -205 58 -15 36 -15 54 -1 201 12 121 13 164 4 174 -8 9 -33 14 -75 14 -72
0 -76 4 -134 120 -18 36 -123 238 -235 450 -112 212 -206 395 -210 407 -5 19
7 37 65 98 91 96 131 178 138 280 9 145 -66 300 -192 394 -35 26 -46 41 -45
60 1 44 182 476 200 479 20 4 195 -134 264 -209 147 -157 225 -350 225 -553 0
-120 -17 -206 -60 -311 -46 -109 -101 -187 -203 -287 l-89 -88 18 -28 c11 -16
95 -140 189 -276 148 -216 171 -245 182 -230 7 9 108 195 224 413 492 919 853
1588 870 1613 11 14 43 38 72 53 79 40 118 32 295 -61z"/>
<path d="M5272 4707 c-12 -13 -69 -111 -127 -218 l-104 -194 212 -106 c117
-59 215 -105 219 -103 12 7 206 377 213 405 5 19 0 33 -17 52 -27 30 -325 187
-355 187 -11 0 -29 -10 -41 -23z"/>
<path d="M4966 4148 c-16 -26 -659 -1226 -700 -1305 l-26 -52 203 -103 c111
-57 208 -103 215 -103 13 0 732 1323 740 1362 4 21 -14 32 -203 123 -114 55
-209 100 -211 100 -2 0 -10 -10 -18 -22z"/>
<path d="M4190 2652 c0 -4 -9 -121 -20 -261 -11 -140 -18 -257 -15 -259 4 -4
423 320 424 328 1 3 -87 49 -194 103 -107 53 -195 94 -195 89z"/>
</g>
</svg>
